<svg width="98" height="91" viewBox="0 0 98 91" fill="none" xmlns="http://www.w3.org/2000/svg">
<path d="M60.5111 40.2C63.7542 40.2 66.5135 39.007 68.7666 37.2515C66.8362 40.7121 65.7222 44.6779 65.7222 48.25C65.7222 49.1122 65.7838 49.9947 65.9155 50.8764C60.6669 46.6935 54.5223 43.65 48.6889 43.65C43.1109 43.65 37.2484 46.4328 32.1568 50.3336C32.2389 49.6333 32.2778 48.9352 32.2778 48.25C32.2778 44.9369 31.2381 41.3402 29.5376 38.1312C31.6272 39.4052 34.0769 40.2 36.8667 40.2C41.4087 40.2 44.7344 37.7261 46.7804 34.6516C47.589 33.4365 48.222 32.1016 48.6889 30.7214C49.1557 32.1016 49.7888 33.4365 50.5973 34.6516C52.6433 37.7261 55.969 40.2 60.5111 40.2ZM73.9524 30.9943C75.9593 27.3538 77.0778 23.165 77.0778 19.65C77.0778 16.3169 76.1513 12.5934 74.1582 9.59845C72.1122 6.52395 68.7865 4.05 64.2444 4.05C58.5459 4.05 54.3411 7.73328 51.7515 11.6799C50.449 13.665 49.429 15.8912 48.7355 18.1261C48.047 15.7224 47.0025 13.3377 45.6435 11.2252C43.0501 7.19366 38.8411 3.5 33.1333 3.5C28.5913 3.5 25.2656 5.97395 23.2196 9.04845C21.2566 11.9982 20.3282 15.6547 20.3006 18.9487C20.0238 22.5043 20.8437 26.5398 22.5668 30.1086C20.3959 28.6532 17.8766 27.7 15.0889 27.7C11.0962 27.7 8.03659 29.5356 6.09371 32.2631C4.24344 34.8607 3.5 38.1034 3.5 41.1C3.5 45.5607 5.38462 50.5356 8.22941 54.386C11.0385 58.1883 15.3763 61.65 20.6889 61.65C20.9598 61.65 21.2264 61.6416 21.4886 61.6249C18.1897 66.4873 15.9444 71.8643 15.9444 76.85C15.9444 80.6977 17.5629 83.6388 20.3518 85.4316C22.8853 87.0603 26.0098 87.5 28.7778 87.5C33.1732 87.5 36.9584 86.1951 40.108 85.1087C43.4099 83.9697 45.9563 83.1 48.6889 83.1C51.0691 83.1 53.42 83.9387 56.5957 85.0903L56.6135 85.0968C59.5846 86.1742 63.2405 87.5 67.3556 87.5C69.9763 87.5 73.3138 87.2332 76.1012 85.8117C77.5559 85.0699 78.9372 83.9752 79.9393 82.3892C80.947 80.7945 81.4333 78.9211 81.4333 76.85C81.4333 71.8437 79.1695 66.4428 75.8481 61.5646C76.3208 61.6209 76.8085 61.65 77.3111 61.65C82.8896 61.65 87.2444 58.2423 90.035 54.3433C92.8295 50.4388 94.5 45.4743 94.5 41.1C94.5 37.9389 93.5174 34.7065 91.6166 32.1862C89.6771 29.6147 86.6861 27.7 82.9111 27.7C79.4169 27.7 76.4027 29.037 73.9524 30.9943Z" fill="white" stroke="#FFC59E" stroke-width="7" stroke-linecap="round" stroke-linejoin="round"/>
</svg>
